<?xml version="1.0" encoding="UTF-8"?>
<svg version="1.1" xmlns="http://www.w3.org/2000/svg" width="285" height="113">
<path d="M0 0 C0 3.96 0 7.92 0 12 C0.7734375 11.84015625 1.546875 11.6803125 2.34375 11.515625 C10.27463455 10.39716692 19.21227484 9.83277373 27 12 C30.52258344 15.26870355 31.5429435 18.52381742 33 23 C34.49906506 24.81542556 34.49906506 24.81542556 36 26 C36.60328125 25.00097656 37.2065625 24.00195312 37.828125 22.97265625 C38.63477998 21.66887669 39.44210682 20.36551266 40.25 19.0625 C40.64574219 18.40314453 41.04148438 17.74378906 41.44921875 17.06445312 C44.52025909 12.15582308 44.52025909 12.15582308 47.14746094 11.30249023 C47.75879883 11.20266846 48.37013672 11.10284668 49 11 C48.50702423 15.72728546 46.29282489 18.75786624 43.5 22.4375 C39.06238059 28.43803437 35.01988705 34.58873865 31.10546875 40.94140625 C28.60876311 44.56834598 25.99988697 48.00005652 22 50 C19.6670134 50.04022391 17.33293334 50.04320247 15 50 C14.505 48.02 14.505 48.02 14 46 C15.093125 46.04125 16.18625 46.0825 17.3125 46.125 C21.08892229 46.32074666 21.08892229 46.32074666 24 44 C21.69462963 37.68253688 17.91609927 32.34769996 14.25 26.75 C13.54617187 25.63625 12.84234375 24.5225 12.1171875 23.375 C11.42367187 22.31796875 10.73015625 21.2609375 10.015625 20.171875 C9.38946289 19.2034668 8.76330078 18.23505859 8.11816406 17.23730469 C5.80951181 14.34822281 5.80951181 14.34822281 0 14 C0 23.57 0 33.14 0 43 C3.20322578 42.2983557 3.20322578 42.2983557 4.5 39.4375 C4.995 38.633125 5.49 37.82875 6 37 C6.99 37 7.98 37 9 37 C8.58565093 41.83407252 6.62206046 43.89537674 3 47 C-1.62914708 48.54304903 -6.16594315 48.49543774 -11 48 C-14.65808034 46.13363248 -15.65410356 44.90297176 -17.11328125 41.09375 C-18.52006779 35.83630544 -18.21213706 30.4616464 -18.125 25.0625 C-18.11597656 23.99708984 -18.10695313 22.93167969 -18.09765625 21.83398438 C-18.07423414 19.22241966 -18.04143452 16.61133063 -18 14 C-19.32 14 -20.64 14 -22 14 C-22 13.34 -22 12.68 -22 12 C-20.68 12 -19.36 12 -18 12 C-18 10.68 -18 9.36 -18 8 C-15.18896187 6.66356841 -12.37593488 5.33137766 -9.5625 4 C-8.76005859 3.6184375 -7.95761719 3.236875 -7.13085938 2.84375 C-6.36708984 2.4828125 -5.60332031 2.121875 -4.81640625 1.75 C-4.10943604 1.41484375 -3.40246582 1.0796875 -2.67407227 0.734375 C-1 0 -1 0 0 0 Z " fill="#000000" transform="translate(89,30)"/>
<path d="M0 0 C1.051875 0.66 2.10375 1.32 3.1875 2 C3.1875 2.99 3.1875 3.98 3.1875 5 C0.45703063 4.45390613 -1.68362419 3.60403446 -4.25 2.4375 C-7.51113656 1.12160279 -9.37607041 0.68759731 -12.8125 1 C-11.43824465 5.10095248 -9.59106087 7.62568115 -6.625 10.75 C6.31972113 24.71942442 6.31972113 24.71942442 6.375 31.375 C6.38917969 32.14585938 6.40335938 32.91671875 6.41796875 33.7109375 C6.1572046 36.30090012 5.60584528 37.82182689 4.1875 40 C-3.14413208 45.56497375 -10.9561438 45.73395217 -19.8125 45 C-23.78296616 43.75517331 -26.84445646 41.96804354 -29.8125 39 C-29.8125 38.01 -29.8125 37.02 -29.8125 36 C-26.90501502 36.44730538 -25.53854761 37.20387155 -23.125 39 C-18.99218858 41.49528237 -15.55588599 41.78918284 -10.8125 42 C-12.9068614 37.25606059 -15.58901328 33.84284632 -19.1875 30.1875 C-24.5478369 24.51884463 -29.16371066 19.25317455 -30.375 11.3125 C-29.57740307 6.61554031 -27.99352272 3.73088536 -24.22265625 0.73828125 C-17.03153059 -3.59463802 -7.46422807 -3.71222711 0 0 Z " fill="#000000" transform="translate(60.8125,34)"/>
<path d="M0 0 C5.94 0 11.88 0 18 0 C18 14.85 18 29.7 18 45 C12.06 45 6.12 45 0 45 C0 30.15 0 15.3 0 0 Z " fill="#000000" transform="translate(140,33)"/>
<path d="M0 0 C4.76730261 2.56462266 7.67869351 5.97130391 10.11328125 10.71875 C10.86328125 13.28125 10.86328125 13.28125 10.86328125 19.28125 C3.60328125 19.28125 -3.65671875 19.28125 -11.13671875 19.28125 C-10.64171875 26.21125 -10.64171875 26.21125 -10.13671875 33.28125 C-4.15303582 34.47798659 -2.06766418 33.44078436 2.86328125 30.28125 C4.21475263 28.96630488 5.55440667 27.63860142 6.86328125 26.28125 C7.85328125 26.28125 8.84328125 26.28125 9.86328125 26.28125 C9.86328125 28.46875 9.86328125 28.46875 8.86328125 31.28125 C2.6932001 36.27541882 -3.13586907 37.77475302 -10.98828125 37.6796875 C-16.12764957 37.02929598 -19.55259944 34.97145317 -23.13671875 31.28125 C-26.17025431 26.81726678 -27.90381528 21.86422132 -27.5859375 16.39453125 C-26.38966027 10.76682706 -23.85389812 5.04774832 -19.01171875 1.71875 C-13.12485472 -1.22468202 -6.35976929 -2.13930082 0 0 Z M-9.13671875 1.28125 C-11.49313399 3.19531662 -11.49313399 3.19531662 -11.33203125 6.5390625 C-11.30882812 7.81523438 -11.285625 9.09140625 -11.26171875 10.40625 C-11.24367187 11.68757813 -11.225625 12.96890625 -11.20703125 14.2890625 C-11.18382812 15.27648438 -11.160625 16.26390625 -11.13671875 17.28125 C-8.49671875 17.28125 -5.85671875 17.28125 -3.13671875 17.28125 C-3.08287354 14.98983714 -3.04399788 12.69806812 -3.01171875 10.40625 C-2.98851562 9.13007812 -2.9653125 7.85390625 -2.94140625 6.5390625 C-2.78030351 3.19531662 -2.78030351 3.19531662 -5.13671875 1.28125 C-6.45671875 1.28125 -7.77671875 1.28125 -9.13671875 1.28125 Z " fill="#000000" transform="translate(189.13671875,41.71875)"/>
<path d="M0 0 C1.6328125 0.82421875 1.6328125 0.82421875 3.8828125 2.32421875 C3.8828125 3.31421875 3.8828125 4.30421875 3.8828125 5.32421875 C1.30426189 4.89446032 -0.84531587 4.46427383 -3.1796875 3.26171875 C-5.35856085 2.0338448 -5.35856085 2.0338448 -9.1171875 2.32421875 C-7.70664781 6.95045308 -5.07117593 9.66924374 -1.6171875 12.88671875 C2.94292811 17.16992812 5.61316149 19.89735965 6.3203125 26.26171875 C6.23669693 29.71568512 5.90731356 30.29291184 3.6328125 33.19921875 C-2.69294434 38.08730358 -8.26759277 37.95725058 -16.1171875 37.32421875 C-19.8671875 36.07421875 -19.8671875 36.07421875 -22.1171875 34.32421875 C-22.9921875 32.13671875 -22.9921875 32.13671875 -23.1171875 30.32421875 C-20.36357835 30.87494058 -18.15681088 31.74543657 -15.5546875 32.88671875 C-12.27689167 34.51712182 -12.27689167 34.51712182 -9.1171875 34.32421875 C-10.54800516 29.85392401 -12.81545728 27.24010686 -16.0546875 23.88671875 C-24.1171875 15.53924084 -24.1171875 15.53924084 -24.1171875 9.26171875 C-22.66472783 4.99511846 -20.11312953 2.56681173 -16.31640625 0.203125 C-11.45880167 -1.73819122 -4.95977436 -1.58310141 0 0 Z " fill="#000000" transform="translate(260.1171875,41.67578125)"/>
<path d="M0 0 C0.495 1.98 0.495 1.98 1 4 C-2.28696233 4.79953138 -3.71023192 5.09658936 -7 4 C-9.76239351 5.41488448 -11.80363095 6.80363095 -14 9 C-14.37268887 11.91188245 -14.37268887 11.91188245 -14.4140625 15.3203125 C-14.45273438 16.57714844 -14.49140625 17.83398438 -14.53125 19.12890625 C-14.5621875 20.44761719 -14.593125 21.76632813 -14.625 23.125 C-14.66318029 24.46486918 -14.70223206 25.80471383 -14.7421875 27.14453125 C-14.83671758 30.42945148 -14.91945733 33.71470706 -15 37 C-20.94 37 -26.88 37 -33 37 C-33 25.12 -33 13.24 -33 1 C-27.06 1 -21.12 1 -15 1 C-14.67 1.99 -14.34 2.98 -14 4 C-13.175 3.34 -12.35 2.68 -11.5 2 C-7.65507519 -0.61234126 -4.54344936 -0.31334134 0 0 Z " fill="#000000" transform="translate(237,41)"/>
</svg>
